<?xml version="1.0" encoding="utf-8"?>
<!-- Generator: Adobe Illustrator 23.0.1, SVG Export Plug-In . SVG Version: 6.00 Build 0)  -->
<svg version="1.1" id="Layer_1" xmlns="http://www.w3.org/2000/svg" xmlns:xlink="http://www.w3.org/1999/xlink" x="0px" y="0px"
	 viewBox="0 0 512 512" style="enable-background:new 0 0 512 512;" xml:space="preserve">
<style type="text/css">
	.st0{fill:#55969D;}
	.st1{fill-rule:evenodd;clip-rule:evenodd;fill:#A24323;}
	.st2{fill:#288085;}
	.st3{fill:#EDD9B4;}
	.st4{fill:#DCC5A1;}
	.st5{fill-rule:evenodd;clip-rule:evenodd;fill:#BC9F82;}
	.st6{fill:#703D22;}
	.st7{fill:#562C19;}
	.st8{fill:#FFFFFF;}
	.st9{fill:#D43329;}
	.st10{fill:#CA3029;}
	.st11{fill:#A82623;}
	.st12{fill:#342214;}
</style>
<g>
	<path class="st0" d="M224,318.1c0.3,0.5,13.9,0.9,28.8,1.5h6.3c15.1-0.5,28.6-0.9,28.8-1.5c20.3,31.9,69.3,47.1,106.7,55.4
		c4.6,1,8.7,2.7,12.3,4.8c21.8-30.4,34.6-67.6,34.6-107.9C441.6,168,358.5,84.8,256,84.8S70.5,168,70.5,270.5
		c0,40.3,12.8,77.5,34.6,107.9c3.6-2.2,7.7-3.8,12.3-4.8C154.7,365.2,203.7,350.1,224,318.1z"/>
	<path class="st1" d="M258.5,375.9c-105.8,2.2-117.6-122.7-113.8-184.4c7.1-115,111.5-161.1,154.1-121.7
		c45.3,0,66.5,56.3,71.6,120.4C377.3,275.8,345.7,374.1,258.5,375.9"/>
	<path class="st2" d="M250.3,456v-81.2l5.8-5.9l0,0l5.8,5.9V456c59.9-1.8,112.6-32,145.2-77.6c-3.6-2.2-7.7-3.8-12.3-4.8
		c-37.3-8.3-86.4-23.5-106.7-55.4c-0.3,0.5-13.9,0.9-28.8,1.5h-6.3c-15.1-0.5-28.6-0.9-28.8-1.5c-20.3,31.9-69.3,47.1-106.7,55.4
		c-4.6,1-8.7,2.7-12.3,4.8C137.7,424,190.4,454.2,250.3,456z"/>
	<path class="st3" d="M291.2,234c0-23.2-17.6-34.8-35.2-34.8v169.6l35.2-48.7V234z"/>
	<path class="st4" d="M220.9,234v86.1l35.2,48.6V199.1C238.5,199.1,220.9,210.7,220.9,234z"/>
	<path class="st5" d="M291.2,234v57.6c-13.3,10.4-26.2,16.3-35.2,16.3c-9,0-21.9-5.9-35.2-16.3V234
		C220.9,187.5,291.2,187.5,291.2,234"/>
	<path class="st6" d="M238.7,182.4c-10.2-5.9-25.6-8.2-41.8-7.1s-27.4,7.6-28,7.9c-0.5,0.3-0.4,4-0.4,6.4c0,2.3,0.3,4.3,1,5.1
		c0.8,0.8,4.9,2.2,6.4,8.5c1.5,6.4,5,20,14.9,28c9.9,8,21,9.7,34.5,5.1c13.5-4.6,18.3-16.1,19.4-18.1c1-2,4-11.6,5.2-14.1
		s2.8-3.8,4.8-3.8v-12.6C250.6,187.8,248.8,188.3,238.7,182.4 M243.7,204.2c-1.3,11.4-11.3,30.5-28.4,31.3
		c-17.1,0.8-28.4-10.1-32.2-19.6c-3.8-9.5-5.5-24.4,6.5-30.3s29.5-5.9,42.2-1S244.6,196.6,243.7,204.2"/>
	<path class="st7" d="M259.5,204.2c1.3,2.5,4.2,12.1,5.2,14.1c1,2,5.9,13.4,19.4,18.1s24.6,2.9,34.5-5.1c9.9-8,13.4-21.7,14.9-28
		c1.5-6.4,5.6-7.7,6.4-8.5s1-2.8,1-5.1s0.1-6-0.4-6.4c-0.5-0.3-11.8-6.8-28-7.9c-16.2-1.1-31.7,1.1-41.8,7.1
		c-10.2,5.9-12,5.4-16,5.4v12.6C256.7,200.5,258.2,201.7,259.5,204.2 M277.6,184.6c12.6-4.8,30.2-4.8,42.2,1s10.2,20.8,6.5,30.3
		c-3.8,9.5-15.1,20.5-32.2,19.6c-17.1-0.8-27.1-20-28.4-31.3C264.7,196.6,264.9,189.4,277.6,184.6"/>
	<path class="st4" d="M166,176.1c-3.6-2.2-7.3-2.8-10.5-1.5c-7.4,3.2-8.9,16-3.4,28.7c5.4,12.6,15.7,20.4,23.1,17.4
		c18.8,43.5,60.2,72.8,80.9,72.8V79.4C196.4,79.4,166.6,129.4,166,176.1z"/>
	<path class="st3" d="M358.6,174.7c-3.7-1.6-8.3-0.3-12.5,2.8c0-47.1-29.9-98.1-90.1-98.1v214.1c20.8,0,62.5-29.7,81.2-73.7
		c0.5,0.3,1,0.7,1.5,0.9c7.4,3.2,17.7-4.6,23.2-17.3C367.5,190.7,366,177.8,358.6,174.7z"/>
	<polygon class="st8" points="291.2,320.1 256,368.8 257.3,370.1 281.5,395.1 316.3,344.8 	"/>
	<polygon class="st8" points="220.9,320.1 195.8,344.8 230.6,395.1 254.8,370.1 256,368.8 	"/>
	<g>
		<g>
			<path class="st9" d="M265.4,256c0,0,0.3,5.9-9.8,5.9c-2.9,0-9.6-1.3-9.6-5.8C252,257.5,259.1,257.9,265.4,256"/>
			<path class="st10" d="M259.6,253.5c2.2,0.3,6.2,2.4,5.9,2.4c-6.4,1.9-13.5,1.5-19.4,0.2c-0.1,0-0.1,0-0.2-0.1
				c2.1-0.9,4.6-2.6,6.6-2.4c1.1,0.1,2.3,0.9,3.3,0.9C257.2,254.5,258.1,253.3,259.6,253.5"/>
			<path class="st11" d="M242.6,255.2c7.7,3.2,18.2,3.4,25.7-0.1c0.2-0.1,0.1-0.3-0.2-0.3C259.3,257.6,251.8,257.1,242.6,255.2
				C242.6,255.1,242.6,255.2,242.6,255.2"/>
		</g>
		<path class="st12" d="M220.3,193.9c4.8,0,8.8,4.5,8.8,10s-4,10-8.8,10c-4.9,0-8.8-4.5-8.8-10C211.5,198.4,215.4,193.9,220.3,193.9
			"/>
		<path class="st12" d="M291.7,193.9c4.8,0,8.8,4.5,8.8,10s-4,10-8.8,10c-4.9,0-8.8-4.5-8.8-10C283,198.4,286.9,193.9,291.7,193.9"
			/>
	</g>
	<path class="st1" d="M349.1,205.1C376.8,86.6,293.4,66.4,244.6,66.4c-54.9,0-96.2,65.1-87,140.9c29.3-17.6,55.1-52.5,119-109.4
		c-9.3,16.7-27.4,47.1-89.1,102c33.2,5.5,95-36.3,127.9-80.1C323.4,151,334.7,185.1,349.1,205.1"/>
	<path class="st8" d="M261.8,374.7l-5.8-5.9l0,0l-5.8,5.9v81.2c1.9,0.1,3.9,0.1,5.8,0.1v-0.1l0,0v0.1c2,0,3.9,0,5.8-0.1V374.7z"/>
</g>
</svg>
